<mxfile host="app.diagrams.net" modified="2023-03-23T13:54:13.144Z" agent="5.0 (Windows NT 10.0; Win64; x64) AppleWebKit/537.36 (KHTML, like Gecko) Chrome/111.0.0.0 Safari/537.36" etag="A_ePDoCkXBylGhpR4I_n" version="21.0.10" type="github">
  <diagram id="C5RBs43oDa-KdzZeNtuy" name="Page-1">
    <mxGraphModel dx="893" dy="474" grid="1" gridSize="10" guides="1" tooltips="1" connect="1" arrows="1" fold="1" page="1" pageScale="1" pageWidth="827" pageHeight="1169" background="none" math="0" shadow="0">
      <root>
        <mxCell id="WIyWlLk6GJQsqaUBKTNV-0" />
        <mxCell id="WIyWlLk6GJQsqaUBKTNV-1" parent="WIyWlLk6GJQsqaUBKTNV-0" />
        <mxCell id="gaM7k2h_licKWOLzN264-4" value="Sparse_Learner" style="swimlane;fontStyle=2;align=center;verticalAlign=top;childLayout=stackLayout;horizontal=1;startSize=26;horizontalStack=0;resizeParent=1;resizeParentMax=0;resizeLast=0;collapsible=1;marginBottom=0;" parent="WIyWlLk6GJQsqaUBKTNV-1" vertex="1">
          <mxGeometry x="120" y="490" width="210" height="180" as="geometry">
            <mxRectangle x="240" y="320" width="100" height="30" as="alternateBounds" />
          </mxGeometry>
        </mxCell>
        <mxCell id="gaM7k2h_licKWOLzN264-5" value="  - need_update_index: int*" style="text;strokeColor=none;fillColor=none;align=left;verticalAlign=top;spacingLeft=4;spacingRight=4;overflow=hidden;rotatable=0;points=[[0,0.5],[1,0.5]];portConstraint=eastwest;" parent="gaM7k2h_licKWOLzN264-4" vertex="1">
          <mxGeometry y="26" width="210" height="26" as="geometry" />
        </mxCell>
        <mxCell id="gaM7k2h_licKWOLzN264-6" value="" style="line;strokeWidth=1;fillColor=none;align=left;verticalAlign=middle;spacingTop=-1;spacingLeft=3;spacingRight=3;rotatable=0;labelPosition=right;points=[];portConstraint=eastwest;strokeColor=inherit;" parent="gaM7k2h_licKWOLzN264-4" vertex="1">
          <mxGeometry y="52" width="210" height="2" as="geometry" />
        </mxCell>
        <mxCell id="gaM7k2h_licKWOLzN264-7" value="+ Sparse_Learner()&#xa;+ Train(): void{abstract}&#xa;+ GetFun(): float{abstract}&#xa;+ GetGrad(): void{abstract}&#xa;+ GetLoss(): float{abstract}&#xa;- SparseVVDot(): float&#xa;- SparseVFDot(): void&#xa;- SparseVVFDot(): void" style="text;strokeColor=none;fillColor=none;align=left;verticalAlign=top;spacingLeft=7;spacingRight=4;overflow=hidden;rotatable=0;points=[[0,0.5],[1,0.5]];portConstraint=eastwest;spacing=5;spacingBottom=-1;spacingTop=-5;" parent="gaM7k2h_licKWOLzN264-4" vertex="1">
          <mxGeometry y="54" width="210" height="126" as="geometry" />
        </mxCell>
        <mxCell id="gaM7k2h_licKWOLzN264-15" style="edgeStyle=orthogonalEdgeStyle;rounded=0;orthogonalLoop=1;jettySize=auto;html=1;exitX=0.5;exitY=0;exitDx=0;exitDy=0;endArrow=block;endFill=0;entryX=0.437;entryY=1.004;entryDx=0;entryDy=0;entryPerimeter=0;dashed=1;" parent="WIyWlLk6GJQsqaUBKTNV-1" source="gaM7k2h_licKWOLzN264-8" target="gaM7k2h_licKWOLzN264-7" edge="1">
          <mxGeometry relative="1" as="geometry">
            <Array as="points">
              <mxPoint x="595" y="435" />
              <mxPoint x="410" y="435" />
              <mxPoint x="410" y="690" />
              <mxPoint x="212" y="690" />
            </Array>
          </mxGeometry>
        </mxCell>
        <mxCell id="gaM7k2h_licKWOLzN264-8" value="Sparse_LBFGS" style="swimlane;fontStyle=1;align=center;verticalAlign=top;childLayout=stackLayout;horizontal=1;startSize=26;horizontalStack=0;resizeParent=1;resizeParentMax=0;resizeLast=0;collapsible=1;marginBottom=0;" parent="WIyWlLk6GJQsqaUBKTNV-1" vertex="1">
          <mxGeometry x="490" y="455" width="210" height="270" as="geometry">
            <mxRectangle x="240" y="320" width="100" height="30" as="alternateBounds" />
          </mxGeometry>
        </mxCell>
        <mxCell id="gaM7k2h_licKWOLzN264-9" value="  - need_update_index: int*&#xa;  - memory_size: int&#xa;  - max_lbfgs_iter: int&#xa;  - linesearch_c: float&#xa;  - max_linesearch_iter: int&#xa;  + w: float*&#xa;" style="text;strokeColor=none;fillColor=none;align=left;verticalAlign=top;spacingLeft=4;spacingRight=4;overflow=hidden;rotatable=0;points=[[0,0.5],[1,0.5]];portConstraint=eastwest;" parent="gaM7k2h_licKWOLzN264-8" vertex="1">
          <mxGeometry y="26" width="210" height="94" as="geometry" />
        </mxCell>
        <mxCell id="gaM7k2h_licKWOLzN264-10" value="" style="line;strokeWidth=1;fillColor=none;align=left;verticalAlign=middle;spacingTop=-1;spacingLeft=3;spacingRight=3;rotatable=0;labelPosition=right;points=[];portConstraint=eastwest;strokeColor=inherit;" parent="gaM7k2h_licKWOLzN264-8" vertex="1">
          <mxGeometry y="120" width="210" height="2" as="geometry" />
        </mxCell>
        <mxCell id="gaM7k2h_licKWOLzN264-11" value="+ Train(): void&#xa;+ GetFun(): float&#xa;+ GetGrad(): void&#xa;+ GetLoss(): float&#xa;- SparseVVDot(): float&#xa;- SparseVFDot(): void&#xa;- SparseVVFDot(): void&#xa;- FindChangDirection(): float&#xa;- BacktackLineSearch(): int&#xa;- UpdateHistInfo(): void" style="text;strokeColor=none;fillColor=none;align=left;verticalAlign=top;spacingLeft=7;spacingRight=4;overflow=hidden;rotatable=0;points=[[0,0.5],[1,0.5]];portConstraint=eastwest;spacing=5;spacingBottom=-1;spacingTop=-5;" parent="gaM7k2h_licKWOLzN264-8" vertex="1">
          <mxGeometry y="122" width="210" height="148" as="geometry" />
        </mxCell>
      </root>
    </mxGraphModel>
  </diagram>
</mxfile>
